<svg width="64" height="64" viewBox="0 0 64 64" fill="none" xmlns="http://www.w3.org/2000/svg">
<path d="M58.7373 22.0433L58.7259 22.0151C58.0673 20.4306 57.0882 18.8185 56.0218 17.4666C54.9828 16.1495 53.7286 14.9107 52.4579 14.2537C51.8002 13.9137 51.0075 14.0078 50.4492 14.4787C50.2823 14.2814 50.1149 14.0859 49.9473 13.8917C49.4948 13.3673 49.0448 12.8568 48.5983 12.3504C46.7957 10.3055 45.0508 8.32614 43.4299 5.76407L43.43 5.76405L43.4241 5.75485C43.2185 5.43426 43.019 5.10989 42.8254 4.78193C42.7428 4.63977 42.6654 4.49464 42.5934 4.3468C42.5871 4.33402 42.5808 4.32131 42.5742 4.30867C42.4728 4.1124 42.3928 3.90589 42.3353 3.69268C42.2697 3.37288 42.1218 3.07336 41.9036 2.82503L41.9034 2.8248C41.6272 2.51066 41.2553 2.29787 40.847 2.21799C40.6687 2.18199 40.4866 2.17158 40.306 2.18679C40.0283 2.20401 39.7519 2.28507 39.4996 2.43281C32.8746 6.31246 30.1613 13.0614 29.4674 17.3876C27.6796 17.6917 25.9614 18.3102 24.3925 19.2124C24.2302 17.8791 24.3195 16.5219 24.6612 15.2125C24.8405 14.5255 24.6038 13.7969 24.0551 13.3464C23.5063 12.8958 22.7456 12.8055 22.1066 13.1151C20.374 13.9545 18.7643 15.0172 17.3171 16.2726C17.3122 16.2151 17.3075 16.1573 17.3031 16.0993C17.2029 14.7871 17.2363 13.5202 17.2619 13.1294C17.3029 12.5051 17.0203 11.9035 16.5136 11.5364C16.0069 11.1693 15.3471 11.0883 14.7667 11.3218C14.3306 11.4971 13.9143 11.7182 13.5248 11.9812C13.5117 11.9901 13.4987 11.9991 13.4858 12.0083C12.4538 12.745 11.4888 13.5715 10.6023 14.4781C9.61699 15.4776 8.71612 16.5569 7.90889 17.705C7.90139 17.7152 7.89399 17.7255 7.88667 17.7358C6.01024 20.3965 4.67927 23.4024 3.97057 26.5802C3.96793 26.5921 3.9654 26.6039 3.963 26.6158L3.92693 26.7943C3.92412 26.8082 3.92147 26.8222 3.91898 26.8361C3.81499 27.4208 3.72263 28.0075 3.64195 28.5959C3.64022 28.6085 3.63862 28.6212 3.63715 28.6338C3.39221 29.9262 3.24003 31.2346 3.18178 32.5488C3.1806 32.5756 3.18 32.6025 3.18 32.6293L3.18 32.769L3.18 32.7706C3.19936 54.9845 27.257 68.8475 46.484 57.7235L45.5725 56.1481L46.484 57.7235C50.1431 55.6064 53.2924 52.7111 55.7091 49.2424C58.1259 45.7737 59.751 41.8163 60.4695 37.6501C60.4738 37.6254 60.4775 37.6005 60.4808 37.5755C60.5166 37.3001 60.5481 37.0209 60.5778 36.7577C60.5875 36.6725 60.5969 36.5889 60.6062 36.5077C61.1983 31.6059 60.5559 26.6337 58.7373 22.0433ZM39.3486 2.54681C39.3334 2.55811 39.3374 2.55497 39.3504 2.54547C39.3497 2.54596 39.3491 2.54638 39.3487 2.54673L39.3486 2.54681Z" fill="url(#paint0_linear_235_1672)" stroke="white" stroke-width="3.64" stroke-linejoin="round"/>
<path d="M57.0452 22.7135C55.8705 19.8869 53.488 16.835 51.622 15.8703C52.9528 18.4479 53.8763 21.2161 54.3598 24.0764V24.1022L54.3646 24.1309C56.4482 30.094 56.1468 36.6318 53.5234 42.3779C50.4252 49.0263 42.9255 55.8408 31.1864 55.5094C18.5023 55.1502 7.3317 45.7373 5.24342 33.4085C4.86331 31.4643 5.24342 30.4787 5.43453 28.8987C5.17378 30.1259 5.02831 31.3749 5 32.6292V32.7689C5.01814 53.5819 27.5585 66.5702 45.5725 56.148C49.0009 54.1644 51.9516 51.4518 54.2159 48.2018C56.4801 44.9519 58.0028 41.2441 58.676 37.3407C58.7213 36.992 58.7582 36.6466 58.7987 36.2943C59.3555 31.692 58.7527 27.0234 57.0452 22.7135Z" fill="url(#paint1_radial_235_1672)"/>
<path d="M57.0452 22.7135C55.8705 19.8869 53.488 16.835 51.622 15.8703C52.9528 18.4479 53.8763 21.2161 54.3598 24.0764V24.1022L54.3646 24.1309C56.4482 30.094 56.1468 36.6318 53.5234 42.3779C50.4252 49.0263 42.9255 55.8408 31.1864 55.5094C18.5023 55.1502 7.3317 45.7373 5.24342 33.4085C4.86331 31.4643 5.24342 30.4787 5.43453 28.8987C5.17378 30.1259 5.02831 31.3749 5 32.6292V32.7689C5.01814 53.5819 27.5585 66.5702 45.5725 56.148C49.0009 54.1644 51.9516 51.4518 54.2159 48.2018C56.4801 44.9519 58.0028 41.2441 58.676 37.3407C58.7213 36.992 58.7582 36.6466 58.7987 36.2943C59.3555 31.692 58.7527 27.0234 57.0452 22.7135Z" fill="url(#paint2_radial_235_1672)"/>
<path d="M43.9084 25.8916C43.967 25.9327 44.0214 25.9738 44.0765 26.015C43.3974 24.8108 42.5521 23.7082 41.5655 22.7399C33.1634 14.3356 39.3635 4.51735 40.4091 4.01865L40.4195 4.00325C33.6294 7.97955 31.3253 15.3402 31.1133 19.022C31.4287 19.0003 31.7411 18.9737 32.0634 18.9737C34.4727 18.9782 36.8379 19.6206 38.9184 20.8357C40.9989 22.0508 42.7206 23.7952 43.9084 25.8916Z" fill="url(#paint3_radial_235_1672)"/>
<path d="M32.0805 27.5702C32.0358 28.2427 29.66 30.5619 28.8293 30.5619C21.1421 30.5619 19.8942 35.2127 19.8942 35.2127C20.2347 39.1288 22.9634 42.3543 26.2618 44.0605C26.4124 44.1388 26.5653 44.2093 26.7181 44.2782C26.9795 44.3942 27.2442 44.5026 27.5118 44.6033C28.6438 45.004 29.8294 45.2328 31.0292 45.282C44.503 45.914 47.1132 29.1684 37.3898 24.309C39.6836 24.0105 42.0065 24.5745 43.908 25.8918C42.7202 23.7954 40.9985 22.051 38.918 20.8359C36.8375 19.6208 34.4723 18.9784 32.063 18.9739C31.7422 18.9739 31.4283 19.0005 31.1129 19.0222C28.4013 19.2086 25.8087 20.2079 23.6734 21.8898C24.0856 22.2387 24.5509 22.7047 25.5309 23.6707C27.3652 25.4781 32.07 27.3503 32.0805 27.5702Z" fill="url(#paint4_radial_235_1672)"/>
<path d="M32.0805 27.5702C32.0358 28.2427 29.66 30.5619 28.8293 30.5619C21.1421 30.5619 19.8942 35.2127 19.8942 35.2127C20.2347 39.1288 22.9634 42.3543 26.2618 44.0605C26.4124 44.1388 26.5653 44.2093 26.7181 44.2782C26.9795 44.3942 27.2442 44.5026 27.5118 44.6033C28.6438 45.004 29.8294 45.2328 31.0292 45.282C44.503 45.914 47.1132 29.1684 37.3898 24.309C39.6836 24.0105 42.0065 24.5745 43.908 25.8918C42.7202 23.7954 40.9985 22.051 38.918 20.8359C36.8375 19.6208 34.4723 18.9784 32.063 18.9739C31.7422 18.9739 31.4283 19.0005 31.1129 19.0222C28.4013 19.2086 25.8087 20.2079 23.6734 21.8898C24.0856 22.2387 24.5509 22.7047 25.5309 23.6707C27.3652 25.4781 32.07 27.3503 32.0805 27.5702Z" fill="url(#paint5_radial_235_1672)"/>
<path d="M22.4131 20.9907C22.6014 21.1105 22.7875 21.234 22.971 21.3611C22.355 19.2049 22.3288 16.9229 22.8951 14.7532C20.4014 15.9613 18.1856 17.6739 16.3879 19.7825C16.5197 19.779 20.4412 19.7085 22.4131 20.9907Z" fill="url(#paint6_radial_235_1672)"/>
<path d="M5.24674 33.4086C7.33291 45.7375 18.5056 55.1503 31.1897 55.5096C42.9288 55.8416 50.4283 49.0265 53.5267 42.378C56.1502 36.6319 56.4516 30.0942 54.3679 24.131V24.1053C54.3679 24.085 54.3637 24.073 54.3679 24.0793L54.3728 24.1247C55.3319 30.3867 52.147 36.4536 47.1682 40.5558L47.1528 40.5908C37.452 48.4921 28.168 45.358 26.289 44.0785C26.1568 44.0153 26.0257 43.95 25.8956 43.8826C20.2395 41.1787 17.903 36.0251 18.4038 31.6054C17.0611 31.6252 15.7416 31.2552 14.6049 30.5402C13.4683 29.8252 12.5634 28.7959 11.9999 27.577C13.4846 26.6673 15.1775 26.1531 16.9173 26.0832C18.6571 26.0134 20.3858 26.3903 21.9386 27.1781C25.1401 28.6315 28.7831 28.7747 32.0887 27.577C32.0784 27.3572 27.3737 25.4843 25.5391 23.6777C24.5591 22.7115 24.094 22.2461 23.6818 21.8968C23.4591 21.708 23.2262 21.5314 22.9843 21.3679C22.8237 21.2584 22.6432 21.1399 22.4263 20.9975C20.4545 19.7153 16.5329 19.7858 16.4032 19.7894H16.3908C15.3194 18.4312 15.3947 13.9529 15.4561 13.0175C15.1391 13.1447 14.8366 13.3053 14.5535 13.4966C13.6077 14.1716 12.7236 14.9291 11.9113 15.7601C10.9826 16.6961 10.1337 17.7081 9.37373 18.7856V18.7896V18.7848C7.6358 21.2491 6.40306 24.0331 5.74666 26.9764C5.73359 27.0314 4.77298 31.2307 5.24674 33.4086Z" fill="url(#paint7_radial_235_1672)"/>
<path d="M41.5668 22.74C42.5536 23.7095 43.3989 24.8132 44.0778 26.0186C44.2179 26.1229 44.3532 26.2338 44.483 26.3507C50.612 32.0009 47.4007 39.9881 47.1615 40.5566C52.1402 36.4542 55.3222 30.3875 54.366 24.1253C51.3081 16.501 46.1249 13.4282 41.8918 6.73711C41.6732 6.39603 41.4609 6.05092 41.255 5.70195C41.1489 5.51969 41.0496 5.33357 40.9572 5.14397C40.7815 4.80395 40.6462 4.44458 40.5539 4.07316C40.554 4.05602 40.5478 4.03942 40.5365 4.02655C40.5252 4.01367 40.5095 4.00541 40.4925 4.00334C40.4758 3.99891 40.4583 3.99891 40.4416 4.00334C40.4383 4.00334 40.4326 4.00967 40.4284 4.01114C40.4241 4.01241 40.4151 4.01874 40.4089 4.02148C39.3633 4.51743 33.1632 14.3357 41.5668 22.74Z" fill="url(#paint8_radial_235_1672)"/>
<path d="M44.4789 26.3471C44.349 26.2303 44.2138 26.1195 44.0737 26.0151C44.0186 25.9739 43.9642 25.9328 43.9056 25.8917C42.0041 24.5745 39.6812 24.0104 37.3874 24.3089C47.1105 29.171 44.5019 45.9139 31.0268 45.2818C29.827 45.2326 28.6414 45.0039 27.5094 44.6032C27.2416 44.5029 26.9769 44.3944 26.7156 44.2781C26.5627 44.2083 26.41 44.1387 26.2594 44.0604L26.2782 44.0724C28.1572 45.3553 37.4382 48.4894 47.142 40.5845L47.1574 40.5497C47.3993 39.9845 50.6106 31.9955 44.4789 26.3471Z" fill="url(#paint9_radial_235_1672)"/>
<path d="M19.8944 35.2125C19.8944 35.2125 21.1423 30.5618 28.8295 30.5618C29.6602 30.5618 32.0381 28.2425 32.0807 27.57C28.775 28.7677 25.132 28.6245 21.9306 27.1709C20.3777 26.3832 18.6489 26.0064 16.9091 26.0762C15.1693 26.1461 13.4764 26.6604 11.9916 27.57C12.5552 28.7889 13.46 29.8182 14.5967 30.5332C15.7333 31.2482 17.0528 31.6182 18.3955 31.5984C17.8947 36.019 20.2313 41.1726 25.8873 43.8756C26.0137 43.9364 26.1322 44.002 26.262 44.0598C22.9608 42.3542 20.2348 39.1287 19.8944 35.2125Z" fill="url(#paint10_radial_235_1672)"/>
<path d="M57.0452 22.7136C55.8705 19.887 53.488 16.8351 51.622 15.8704C52.9528 18.448 53.8763 21.2162 54.3598 24.0766L54.3646 24.1219C51.3081 16.501 46.125 13.4282 41.8919 6.73711C41.6732 6.39603 41.4609 6.05092 41.2551 5.70195C41.149 5.51969 41.0496 5.33357 40.9572 5.14397C40.7816 4.80395 40.6462 4.44458 40.5539 4.07316C40.554 4.05602 40.5479 4.03942 40.5365 4.02655C40.5252 4.01367 40.5096 4.00541 40.4925 4.00334C40.4759 3.99891 40.4584 3.99891 40.4417 4.00334C40.4383 4.00334 40.4326 4.00967 40.4284 4.01114C40.4242 4.01241 40.4151 4.01874 40.409 4.02148L40.4193 4.00334C33.6293 7.97963 31.3252 15.3403 31.1132 19.0221C31.4286 19.0004 31.741 18.9738 32.0633 18.9738C34.4726 18.9782 36.8377 19.6207 38.9183 20.8358C40.9988 22.0509 42.7205 23.7953 43.9082 25.8916C42.0068 24.5744 39.6839 24.0103 37.3901 24.3088C47.1134 29.1709 44.5048 45.9138 31.0295 45.2818C29.8297 45.2326 28.6441 45.0038 27.5121 44.6032C27.2443 44.5028 26.9796 44.3944 26.7183 44.2781C26.5656 44.2083 26.4127 44.1386 26.2621 44.0604L26.2808 44.0724C26.1487 44.009 26.0176 43.9436 25.8874 43.8762C26.0138 43.937 26.1323 44.0026 26.2621 44.0604C22.9609 42.3542 20.235 39.1287 19.8945 35.2125C19.8945 35.2125 21.1424 30.5618 28.8296 30.5618C29.6603 30.5618 32.0382 28.2425 32.0808 27.57C32.0702 27.3502 27.3655 25.4773 25.5312 23.6705C24.5512 22.7045 24.0858 22.2392 23.6737 21.8896C23.4508 21.7009 23.218 21.5244 22.9761 21.361C22.3602 19.2047 22.334 16.9228 22.9001 14.753C20.4065 15.9611 18.1908 17.6737 16.3932 19.7824H16.3805C15.3091 18.4242 15.3844 13.9459 15.4458 13.0103C15.1289 13.1378 14.8264 13.2984 14.5432 13.4896C13.5975 14.1647 12.7133 14.9222 11.901 15.7531C10.9755 16.6917 10.1302 17.706 9.374 18.7856V18.7896V18.7848C7.63606 21.249 6.40333 24.0331 5.74693 26.9764L5.71086 27.1548C5.65981 27.3928 5.43179 28.6009 5.39888 28.8604C5.39888 28.8402 5.39888 28.88 5.39888 28.8604C5.19032 30.1076 5.05711 31.3662 5 32.6293V32.769C5.01814 53.5821 27.5585 66.5704 45.5725 56.1481C49.0009 54.1646 51.9516 51.4519 54.2159 48.202C56.4801 44.952 58.0028 41.2442 58.676 37.3408C58.7213 36.9921 58.7582 36.6468 58.7987 36.2945C59.3555 31.6921 58.7527 27.0236 57.0452 22.7136Z" fill="url(#paint11_linear_235_1672)"/>
<defs>
<linearGradient id="paint0_linear_235_1672" x1="53.4669" y1="12.6419" x2="8.58633" y2="55.9395" gradientUnits="userSpaceOnUse">
<stop offset="0.048" stop-color="#FFF44F"/>
<stop offset="0.111" stop-color="#FFE847"/>
<stop offset="0.225" stop-color="#FFC830"/>
<stop offset="0.368" stop-color="#FF980E"/>
<stop offset="0.401" stop-color="#FF8B16"/>
<stop offset="0.462" stop-color="#FF672A"/>
<stop offset="0.534" stop-color="#FF3647"/>
<stop offset="0.705" stop-color="#E31587"/>
</linearGradient>
<radialGradient id="paint1_radial_235_1672" cx="0" cy="0" r="1" gradientUnits="userSpaceOnUse" gradientTransform="translate(51.3942 10.1914) scale(56.3564 56.3612)">
<stop offset="0.129" stop-color="#FFBD4F"/>
<stop offset="0.186" stop-color="#FFAC31"/>
<stop offset="0.247" stop-color="#FF9D17"/>
<stop offset="0.283" stop-color="#FF980E"/>
<stop offset="0.403" stop-color="#FF563B"/>
<stop offset="0.467" stop-color="#FF3750"/>
<stop offset="0.71" stop-color="#F5156C"/>
<stop offset="0.782" stop-color="#EB0878"/>
<stop offset="0.86" stop-color="#E50080"/>
</radialGradient>
<radialGradient id="paint2_radial_235_1672" cx="0" cy="0" r="1" gradientUnits="userSpaceOnUse" gradientTransform="translate(30.801 33.2335) scale(56.3564 56.3612)">
<stop offset="0.3" stop-color="#960E18"/>
<stop offset="0.351" stop-color="#B11927" stop-opacity="0.74"/>
<stop offset="0.435" stop-color="#DB293D" stop-opacity="0.343"/>
<stop offset="0.497" stop-color="#F5334B" stop-opacity="0.094"/>
<stop offset="0.53" stop-color="#FF3750" stop-opacity="0"/>
</radialGradient>
<radialGradient id="paint3_radial_235_1672" cx="0" cy="0" r="1" gradientUnits="userSpaceOnUse" gradientTransform="translate(37.5955 -2.59907) scale(40.8278 40.8313)">
<stop offset="0.132" stop-color="#FFF44F"/>
<stop offset="0.252" stop-color="#FFDC3E"/>
<stop offset="0.506" stop-color="#FF9D12"/>
<stop offset="0.526" stop-color="#FF980E"/>
</radialGradient>
<radialGradient id="paint4_radial_235_1672" cx="0" cy="0" r="1" gradientUnits="userSpaceOnUse" gradientTransform="translate(24.5671 47.9559) scale(26.8338 26.8361)">
<stop offset="0.353" stop-color="#3A8EE6"/>
<stop offset="0.472" stop-color="#5C79F0"/>
<stop offset="0.669" stop-color="#9059FF"/>
<stop offset="1" stop-color="#C139E6"/>
</radialGradient>
<radialGradient id="paint5_radial_235_1672" cx="0" cy="0" r="1" gradientUnits="userSpaceOnUse" gradientTransform="translate(33.8889 28.6154) rotate(-13.5926) scale(14.2272 16.6577)">
<stop offset="0.206" stop-color="#9059FF" stop-opacity="0"/>
<stop offset="0.278" stop-color="#8C4FF3" stop-opacity="0.064"/>
<stop offset="0.747" stop-color="#7716A8" stop-opacity="0.45"/>
<stop offset="0.975" stop-color="#6E008B" stop-opacity="0.6"/>
</radialGradient>
<radialGradient id="paint6_radial_235_1672" cx="0" cy="0" r="1" gradientUnits="userSpaceOnUse" gradientTransform="translate(30.0893 7.8856) scale(19.3042 19.3058)">
<stop stop-color="#FFE226"/>
<stop offset="0.121" stop-color="#FFDB27"/>
<stop offset="0.295" stop-color="#FFC82A"/>
<stop offset="0.502" stop-color="#FFA930"/>
<stop offset="0.732" stop-color="#FF7E37"/>
<stop offset="0.792" stop-color="#FF7139"/>
</radialGradient>
<radialGradient id="paint7_radial_235_1672" cx="0" cy="0" r="1" gradientUnits="userSpaceOnUse" gradientTransform="translate(45.2628 -4.35962) scale(82.3623 82.3693)">
<stop offset="0.113" stop-color="#FFF44F"/>
<stop offset="0.456" stop-color="#FF980E"/>
<stop offset="0.622" stop-color="#FF5634"/>
<stop offset="0.716" stop-color="#FF3647"/>
<stop offset="0.904" stop-color="#E31587"/>
</radialGradient>
<radialGradient id="paint8_radial_235_1672" cx="0" cy="0" r="1" gradientUnits="userSpaceOnUse" gradientTransform="translate(38.3344 0.218803) rotate(83.9766) scale(60.3704 39.6173)">
<stop stop-color="#FFF44F"/>
<stop offset="0.06" stop-color="#FFE847"/>
<stop offset="0.168" stop-color="#FFC830"/>
<stop offset="0.304" stop-color="#FF980E"/>
<stop offset="0.356" stop-color="#FF8B16"/>
<stop offset="0.455" stop-color="#FF672A"/>
<stop offset="0.57" stop-color="#FF3647"/>
<stop offset="0.737" stop-color="#E31587"/>
</radialGradient>
<radialGradient id="paint9_radial_235_1672" cx="0" cy="0" r="1" gradientUnits="userSpaceOnUse" gradientTransform="translate(29.6348 15.0362) scale(51.4202 51.4246)">
<stop offset="0.137" stop-color="#FFF44F"/>
<stop offset="0.48" stop-color="#FF980E"/>
<stop offset="0.592" stop-color="#FF5634"/>
<stop offset="0.655" stop-color="#FF3647"/>
<stop offset="0.904" stop-color="#E31587"/>
</radialGradient>
<radialGradient id="paint10_radial_235_1672" cx="0" cy="0" r="1" gradientUnits="userSpaceOnUse" gradientTransform="translate(43.2081 18.0462) scale(56.279 56.2838)">
<stop offset="0.094" stop-color="#FFF44F"/>
<stop offset="0.231" stop-color="#FFE141"/>
<stop offset="0.509" stop-color="#FFAF1E"/>
<stop offset="0.626" stop-color="#FF980E"/>
</radialGradient>
<linearGradient id="paint11_linear_235_1672" x1="52.9277" y1="12.4104" x2="14.7388" y2="50.5954" gradientUnits="userSpaceOnUse">
<stop offset="0.167" stop-color="#FFF44F" stop-opacity="0.8"/>
<stop offset="0.266" stop-color="#FFF44F" stop-opacity="0.634"/>
<stop offset="0.489" stop-color="#FFF44F" stop-opacity="0.217"/>
<stop offset="0.6" stop-color="#FFF44F" stop-opacity="0"/>
</linearGradient>
</defs>
</svg>
