<svg width="64" height="64" viewBox="0 0 64 64" fill="none" xmlns="http://www.w3.org/2000/svg">
<rect x="0.0762329" y="0.0542831" width="63.8695" height="63.8695" rx="14.8772" fill="white"/>
<g clip-path="url(#clip0_235_1673)">
<g filter="url(#filter0_d_235_1673)">
<path d="M52.053 24.5324L52.0444 24.5114C51.5505 23.323 50.8161 22.1138 50.0163 21.0999C49.2371 20.1121 48.2965 19.183 47.3434 18.6903C46.8501 18.4353 46.2556 18.5058 45.8369 18.859C45.7117 18.7111 45.5862 18.5644 45.4605 18.4188C45.1211 18.0255 44.7835 17.6426 44.4487 17.2627C43.0967 15.7291 41.7881 14.2446 40.5725 12.323L40.5725 12.323L40.5681 12.3161C40.4139 12.0757 40.2642 11.8324 40.119 11.5864C40.0571 11.4798 39.999 11.3709 39.945 11.2601C39.9403 11.2505 39.9356 11.241 39.9307 11.2315C39.8546 11.0843 39.7946 10.9294 39.7515 10.7695C39.7023 10.5297 39.5914 10.305 39.4276 10.1187C39.2204 9.88301 38.9415 9.72344 38.6353 9.66351C38.5016 9.63649 38.365 9.62868 38.2295 9.64009C38.0212 9.653 37.814 9.7138 37.6247 9.82461C32.656 12.7343 30.621 17.7961 30.1005 21.0407C28.7597 21.2688 27.4711 21.7327 26.2944 22.4093C26.1727 21.4093 26.2396 20.3914 26.4959 19.4094C26.6303 18.8941 26.4529 18.3477 26.0413 18.0098C25.6297 17.6719 25.0592 17.6041 24.58 17.8363C23.2805 18.4659 22.0732 19.2629 20.9878 20.2045C20.9842 20.1614 20.9807 20.118 20.9773 20.0744C20.9022 19.0903 20.9272 18.1401 20.9464 17.8471C20.9772 17.3788 20.7652 16.9276 20.3852 16.6523C20.0052 16.377 19.5104 16.3162 19.075 16.4913C18.748 16.6229 18.4358 16.7886 18.1436 16.9859C18.1338 16.9925 18.124 16.9993 18.1143 17.0062C17.3403 17.5588 16.6167 18.1786 15.9517 18.8585C15.2128 19.6082 14.5371 20.4177 13.9317 21.2788C13.926 21.2864 13.9205 21.2941 13.915 21.3019C12.5077 23.2974 11.5095 25.5518 10.9779 27.9352L10.9722 27.9619L10.9452 28.0957C10.9431 28.1062 10.9411 28.1166 10.9392 28.1271C10.8612 28.5656 10.792 29.0056 10.7315 29.4469C10.7302 29.4564 10.729 29.4659 10.7279 29.4754C10.5442 30.4447 10.43 31.4259 10.3863 32.4116C10.3854 32.4317 10.385 32.4519 10.385 32.472L10.385 32.5767L10.385 32.5779C10.3995 49.2384 28.4427 59.6356 42.863 51.2926C45.6073 49.7048 47.9693 47.5333 49.7819 44.9318C51.5944 42.3303 52.8132 39.3622 53.3521 36.2376C53.3553 36.219 53.3581 36.2004 53.3606 36.1817C53.3874 35.9751 53.4111 35.7657 53.4334 35.5683C53.4406 35.5044 53.4477 35.4418 53.4546 35.3809C53.8987 31.7045 53.4169 27.9753 52.053 24.5324ZM37.5115 9.91008C37.5001 9.91852 37.5031 9.91621 37.5127 9.90914C37.5123 9.90948 37.5119 9.90978 37.5115 9.91003L37.5115 9.91008Z" fill="url(#paint0_linear_235_1673)" stroke="white" stroke-width="2.73" stroke-linejoin="round"/>
<path d="M50.7839 25.0351C49.9029 22.9152 48.116 20.6262 46.7165 19.9027C47.7146 21.8359 48.4072 23.9121 48.7698 26.0573V26.0766L48.7735 26.0982C50.3362 30.5705 50.1101 35.4738 48.1426 39.7834C45.8189 44.7698 40.1941 49.8806 31.3898 49.6321C21.8767 49.3626 13.4988 42.303 11.9326 33.0564C11.6475 31.5982 11.9326 30.859 12.0759 29.674C11.8803 30.5944 11.7712 31.5312 11.75 32.4719V32.5766C11.7636 48.1864 28.6689 57.9277 42.1794 50.111C44.7507 48.6233 46.9637 46.5888 48.6619 44.1514C50.3601 41.7139 51.5021 38.9331 52.007 36.0055C52.041 35.744 52.0687 35.485 52.0991 35.2208C52.5166 31.769 52.0645 28.2676 50.7839 25.0351Z" fill="url(#paint1_radial_235_1673)"/>
<path d="M50.7839 25.0351C49.9029 22.9152 48.116 20.6262 46.7165 19.9027C47.7146 21.8359 48.4072 23.9121 48.7698 26.0573V26.0766L48.7735 26.0982C50.3362 30.5705 50.1101 35.4738 48.1426 39.7834C45.8189 44.7698 40.1941 49.8806 31.3898 49.6321C21.8767 49.3626 13.4988 42.303 11.9326 33.0564C11.6475 31.5982 11.9326 30.859 12.0759 29.674C11.8803 30.5944 11.7712 31.5312 11.75 32.4719V32.5766C11.7636 48.1864 28.6689 57.9277 42.1794 50.111C44.7507 48.6233 46.9637 46.5888 48.6619 44.1514C50.3601 41.7139 51.5021 38.9331 52.007 36.0055C52.041 35.744 52.0687 35.485 52.0991 35.2208C52.5166 31.769 52.0645 28.2676 50.7839 25.0351Z" fill="url(#paint2_radial_235_1673)"/>
<path d="M40.9313 27.4187C40.9753 27.4495 41.0161 27.4804 41.0574 27.5112C40.5481 26.6081 39.9141 25.7812 39.1741 25.0549C32.8726 18.7517 37.5226 11.388 38.3069 11.014L38.3146 11.0024C33.2221 13.9847 31.494 19.5052 31.335 22.2665C31.5715 22.2502 31.8058 22.2303 32.0476 22.2303C33.8545 22.2336 35.6284 22.7154 37.1888 23.6268C38.7492 24.5381 40.0405 25.8464 40.9313 27.4187Z" fill="url(#paint3_radial_235_1673)"/>
<path d="M32.0604 28.6776C32.0268 29.182 30.245 30.9214 29.622 30.9214C23.8566 30.9214 22.9207 34.4095 22.9207 34.4095C23.176 37.3466 25.2225 39.7657 27.6963 41.0454C27.8093 41.1041 27.924 41.1569 28.0385 41.2087C28.2346 41.2957 28.4331 41.377 28.6339 41.4525C29.4828 41.753 30.3721 41.9246 31.2719 41.9615C41.3773 42.4355 43.3349 29.8763 36.0423 26.2317C37.7627 26.0079 39.5049 26.4309 40.931 27.4188C40.0401 25.8466 38.7489 24.5383 37.1885 23.6269C35.6281 22.7156 33.8542 22.2338 32.0472 22.2305C31.8066 22.2305 31.5712 22.2504 31.3347 22.2667C29.301 22.4065 27.3565 23.1559 25.755 24.4173C26.0642 24.679 26.4132 25.0285 27.1482 25.753C28.5239 27.1086 32.0525 28.5128 32.0604 28.6776Z" fill="url(#paint4_radial_235_1673)"/>
<path d="M32.0604 28.6776C32.0268 29.182 30.245 30.9214 29.622 30.9214C23.8566 30.9214 22.9207 34.4095 22.9207 34.4095C23.176 37.3466 25.2225 39.7657 27.6963 41.0454C27.8093 41.1041 27.924 41.1569 28.0385 41.2087C28.2346 41.2957 28.4331 41.377 28.6339 41.4525C29.4828 41.753 30.3721 41.9246 31.2719 41.9615C41.3773 42.4355 43.3349 29.8763 36.0423 26.2317C37.7627 26.0079 39.5049 26.4309 40.931 27.4188C40.0401 25.8466 38.7489 24.5383 37.1885 23.6269C35.6281 22.7156 33.8542 22.2338 32.0472 22.2305C31.8066 22.2305 31.5712 22.2504 31.3347 22.2667C29.301 22.4065 27.3565 23.1559 25.755 24.4173C26.0642 24.679 26.4132 25.0285 27.1482 25.753C28.5239 27.1086 32.0525 28.5128 32.0604 28.6776Z" fill="url(#paint5_radial_235_1673)"/>
<path d="M24.8098 23.743C24.9511 23.8329 25.0906 23.9255 25.2283 24.0208C24.7662 22.4037 24.7466 20.6922 25.1713 19.0649C23.3011 19.971 21.6392 21.2554 20.2909 22.8369C20.3898 22.8342 23.3309 22.7814 24.8098 23.743Z" fill="url(#paint6_radial_235_1673)"/>
<path d="M11.9351 33.0565C13.4997 42.3031 21.8792 49.3627 31.3923 49.6322C40.1966 49.8812 45.8212 44.7699 48.1451 39.7835C50.1126 35.4739 50.3387 30.5706 48.776 26.0983V26.079C48.776 26.0638 48.7728 26.0548 48.776 26.0595L48.7796 26.0935C49.499 30.79 47.1102 35.3402 43.3762 38.4168L43.3646 38.4431C36.089 44.3691 29.126 42.0185 27.7168 41.0589C27.6176 41.0115 27.5193 40.9625 27.4217 40.9119C23.1797 38.8841 21.4272 35.0188 21.8028 31.704C20.7958 31.7189 19.8062 31.4414 18.9537 30.9051C18.1012 30.3689 17.4226 29.5969 16.9999 28.6827C18.1135 28.0005 19.3832 27.6148 20.688 27.5624C21.9928 27.51 23.2894 27.7927 24.454 28.3835C26.8551 29.4736 29.5873 29.581 32.0666 28.6827C32.0588 28.5179 28.5302 27.1132 27.1544 25.7583C26.4193 25.0336 26.0705 24.6846 25.7614 24.4226C25.5943 24.281 25.4197 24.1486 25.2382 24.0259C25.1178 23.9438 24.9824 23.8549 24.8197 23.7481C23.3409 22.7865 20.3997 22.8393 20.3024 22.842H20.2931C19.4896 21.8234 19.5461 18.4646 19.5921 17.7631C19.3544 17.8586 19.1274 17.979 18.9151 18.1224C18.2058 18.6287 17.5427 19.1968 16.9335 19.8201C16.2369 20.5221 15.6003 21.2811 15.0303 22.0892V22.0922V22.0886C13.7269 23.9368 12.8023 26.0249 12.31 28.2323C12.3002 28.2736 11.5797 31.423 11.9351 33.0565Z" fill="url(#paint7_radial_235_1673)"/>
<path d="M39.1751 25.055C39.9152 25.7821 40.5492 26.6099 41.0583 27.514C41.1635 27.5922 41.2649 27.6753 41.3622 27.763C45.959 32.0007 43.5505 37.9911 43.3711 38.4175C47.1052 35.3406 49.4917 30.7906 48.7745 26.094C46.4811 20.3757 42.5937 18.0711 39.4189 13.0528C39.2549 12.797 39.0956 12.5382 38.9413 12.2765C38.8617 12.1398 38.7872 12.0002 38.7179 11.858C38.5861 11.603 38.4846 11.3334 38.4154 11.0549C38.4155 11.042 38.4109 11.0296 38.4024 11.0199C38.3939 11.0103 38.3821 11.0041 38.3694 11.0025C38.3569 10.9992 38.3437 10.9992 38.3312 11.0025C38.3287 11.0025 38.3244 11.0072 38.3213 11.0084C38.3181 11.0093 38.3113 11.0141 38.3067 11.0161C37.5225 11.3881 32.8724 18.7518 39.1751 25.055Z" fill="url(#paint8_radial_235_1673)"/>
<path d="M41.3592 27.7603C41.2618 27.6727 41.1603 27.5896 41.0553 27.5113C41.014 27.4805 40.9731 27.4496 40.9292 27.4188C39.503 26.4308 37.7609 26.0078 36.0405 26.2317C43.3329 29.8782 41.3764 42.4354 31.2701 41.9614C30.3702 41.9245 29.481 41.7529 28.632 41.4524C28.4312 41.3771 28.2327 41.2958 28.0367 41.2086C27.922 41.1562 27.8075 41.104 27.6945 41.0453L27.7086 41.0543C29.1179 42.0164 36.0787 44.3671 43.3565 38.4384L43.368 38.4123C43.5495 37.9884 45.958 31.9966 41.3592 27.7603Z" fill="url(#paint9_radial_235_1673)"/>
<path d="M22.9208 34.4094C22.9208 34.4094 23.8567 30.9213 29.6221 30.9213C30.2451 30.9213 32.0285 29.1819 32.0605 28.6775C29.5813 29.5758 26.849 29.4683 24.4479 28.3782C23.2832 27.7874 21.9867 27.5048 20.6818 27.5572C19.377 27.6096 18.1073 27.9953 16.9937 28.6775C17.4164 29.5917 18.095 30.3637 18.9475 30.8999C19.8 31.4362 20.7896 31.7137 21.7966 31.6988C21.421 35.0142 23.1734 38.8795 27.4155 40.9067C27.5103 40.9523 27.5992 41.0015 27.6965 41.0448C25.2206 39.7656 23.1761 37.3465 22.9208 34.4094Z" fill="url(#paint10_radial_235_1673)"/>
<path d="M50.7839 25.0352C49.9029 22.9153 48.116 20.6263 46.7165 19.9028C47.7146 21.836 48.4072 23.9122 48.7698 26.0574L48.7735 26.0915C46.4811 20.3757 42.5937 18.0711 39.4189 13.0528C39.2549 12.797 39.0957 12.5382 38.9413 12.2765C38.8617 12.1398 38.7872 12.0002 38.7179 11.858C38.5862 11.603 38.4847 11.3334 38.4154 11.0549C38.4155 11.042 38.4109 11.0296 38.4024 11.0199C38.3939 11.0103 38.3822 11.0041 38.3694 11.0025C38.3569 10.9992 38.3438 10.9992 38.3313 11.0025C38.3287 11.0025 38.3245 11.0072 38.3213 11.0084C38.3181 11.0093 38.3113 11.0141 38.3068 11.0161L38.3145 11.0025C33.222 13.9847 31.4939 19.5052 31.3349 22.2666C31.5714 22.2503 31.8057 22.2303 32.0475 22.2303C33.8544 22.2337 35.6283 22.7155 37.1887 23.6268C38.7491 24.5382 40.0404 25.8465 40.9312 27.4187C39.5051 26.4308 37.7629 26.0077 36.0426 26.2316C43.3351 29.8782 41.3786 42.4354 31.2721 41.9614C30.3723 41.9245 29.483 41.7529 28.6341 41.4524C28.4332 41.3771 28.2347 41.2958 28.0387 41.2086C27.9242 41.1562 27.8095 41.104 27.6966 41.0453L27.7106 41.0543C27.6115 41.0067 27.5132 40.9577 27.4156 40.9072C27.5103 40.9527 27.5993 41.0019 27.6966 41.0453C25.2207 39.7656 23.1762 37.3465 22.9209 34.4094C22.9209 34.4094 23.8568 30.9213 29.6222 30.9213C30.2452 30.9213 32.0286 29.1819 32.0606 28.6775C32.0527 28.5126 28.5241 27.108 27.1484 25.7529C26.4134 25.0284 26.0644 24.6794 25.7552 24.4172C25.5881 24.2757 25.4135 24.1433 25.2321 24.0207C24.7701 22.4036 24.7505 20.6921 25.1751 19.0647C23.3049 19.9708 21.6431 21.2552 20.2949 22.8368H20.2854C19.4819 21.8182 19.5383 18.4594 19.5844 17.7577C19.3467 17.8533 19.1198 17.9738 18.9074 18.1172C18.1981 18.6235 17.535 19.1916 16.9258 19.8148C16.2317 20.5187 15.5977 21.2795 15.0305 22.0892V22.0922V22.0886C13.727 23.9368 12.8025 26.0249 12.3102 28.2323L12.2831 28.3661C12.2449 28.5446 12.0738 29.4507 12.0492 29.6453C12.0492 29.6301 12.0492 29.66 12.0492 29.6453C11.8927 30.5807 11.7928 31.5246 11.75 32.472V32.5767C11.7636 48.1865 28.6689 57.9278 42.1794 50.1111C44.7507 48.6234 46.9637 46.5889 48.6619 44.1515C50.3601 41.714 51.5021 38.9332 52.007 36.0056C52.041 35.7441 52.0687 35.4851 52.0991 35.2209C52.5166 31.7691 52.0645 28.2677 50.7839 25.0352Z" fill="url(#paint11_linear_235_1673)"/>
</g>
</g>
<defs>
<filter id="filter0_d_235_1673" x="5.02" y="4.27001" width="53.96" height="55.331" filterUnits="userSpaceOnUse" color-interpolation-filters="sRGB">
<feFlood flood-opacity="0" result="BackgroundImageFix"/>
<feColorMatrix in="SourceAlpha" type="matrix" values="0 0 0 0 0 0 0 0 0 0 0 0 0 0 0 0 0 0 127 0" result="hardAlpha"/>
<feOffset/>
<feGaussianBlur stdDeviation="2"/>
<feComposite in2="hardAlpha" operator="out"/>
<feColorMatrix type="matrix" values="0 0 0 0 0 0 0 0 0 0 0 0 0 0 0 0 0 0 0.25 0"/>
<feBlend mode="normal" in2="BackgroundImageFix" result="effect1_dropShadow_235_1673"/>
<feBlend mode="normal" in="SourceGraphic" in2="effect1_dropShadow_235_1673" result="shape"/>
</filter>
<linearGradient id="paint0_linear_235_1673" x1="48.1002" y1="17.4815" x2="14.4397" y2="49.9547" gradientUnits="userSpaceOnUse">
<stop offset="0.048" stop-color="#FFF44F"/>
<stop offset="0.111" stop-color="#FFE847"/>
<stop offset="0.225" stop-color="#FFC830"/>
<stop offset="0.368" stop-color="#FF980E"/>
<stop offset="0.401" stop-color="#FF8B16"/>
<stop offset="0.462" stop-color="#FF672A"/>
<stop offset="0.534" stop-color="#FF3647"/>
<stop offset="0.705" stop-color="#E31587"/>
</linearGradient>
<radialGradient id="paint1_radial_235_1673" cx="0" cy="0" r="1" gradientUnits="userSpaceOnUse" gradientTransform="translate(46.5456 15.6436) scale(42.2673 42.2709)">
<stop offset="0.129" stop-color="#FFBD4F"/>
<stop offset="0.186" stop-color="#FFAC31"/>
<stop offset="0.247" stop-color="#FF9D17"/>
<stop offset="0.283" stop-color="#FF980E"/>
<stop offset="0.403" stop-color="#FF563B"/>
<stop offset="0.467" stop-color="#FF3750"/>
<stop offset="0.71" stop-color="#F5156C"/>
<stop offset="0.782" stop-color="#EB0878"/>
<stop offset="0.86" stop-color="#E50080"/>
</radialGradient>
<radialGradient id="paint2_radial_235_1673" cx="0" cy="0" r="1" gradientUnits="userSpaceOnUse" gradientTransform="translate(31.1007 32.9251) scale(42.2673 42.2709)">
<stop offset="0.3" stop-color="#960E18"/>
<stop offset="0.351" stop-color="#B11927" stop-opacity="0.74"/>
<stop offset="0.435" stop-color="#DB293D" stop-opacity="0.343"/>
<stop offset="0.497" stop-color="#F5334B" stop-opacity="0.094"/>
<stop offset="0.53" stop-color="#FF3750" stop-opacity="0"/>
</radialGradient>
<radialGradient id="paint3_radial_235_1673" cx="0" cy="0" r="1" gradientUnits="userSpaceOnUse" gradientTransform="translate(36.1966 6.05069) scale(30.6209 30.6235)">
<stop offset="0.132" stop-color="#FFF44F"/>
<stop offset="0.252" stop-color="#FFDC3E"/>
<stop offset="0.506" stop-color="#FF9D12"/>
<stop offset="0.526" stop-color="#FF980E"/>
</radialGradient>
<radialGradient id="paint4_radial_235_1673" cx="0" cy="0" r="1" gradientUnits="userSpaceOnUse" gradientTransform="translate(26.4253 43.9669) scale(20.1253 20.127)">
<stop offset="0.353" stop-color="#3A8EE6"/>
<stop offset="0.472" stop-color="#5C79F0"/>
<stop offset="0.669" stop-color="#9059FF"/>
<stop offset="1" stop-color="#C139E6"/>
</radialGradient>
<radialGradient id="paint5_radial_235_1673" cx="0" cy="0" r="1" gradientUnits="userSpaceOnUse" gradientTransform="translate(33.4166 29.4616) rotate(-13.5926) scale(10.6704 12.4933)">
<stop offset="0.206" stop-color="#9059FF" stop-opacity="0"/>
<stop offset="0.278" stop-color="#8C4FF3" stop-opacity="0.064"/>
<stop offset="0.747" stop-color="#7716A8" stop-opacity="0.45"/>
<stop offset="0.975" stop-color="#6E008B" stop-opacity="0.6"/>
</radialGradient>
<radialGradient id="paint6_radial_235_1673" cx="0" cy="0" r="1" gradientUnits="userSpaceOnUse" gradientTransform="translate(30.567 13.9142) scale(14.4781 14.4794)">
<stop stop-color="#FFE226"/>
<stop offset="0.121" stop-color="#FFDB27"/>
<stop offset="0.295" stop-color="#FFC82A"/>
<stop offset="0.502" stop-color="#FFA930"/>
<stop offset="0.732" stop-color="#FF7E37"/>
<stop offset="0.792" stop-color="#FF7139"/>
</radialGradient>
<radialGradient id="paint7_radial_235_1673" cx="0" cy="0" r="1" gradientUnits="userSpaceOnUse" gradientTransform="translate(41.9471 4.73028) scale(61.7717 61.777)">
<stop offset="0.113" stop-color="#FFF44F"/>
<stop offset="0.456" stop-color="#FF980E"/>
<stop offset="0.622" stop-color="#FF5634"/>
<stop offset="0.716" stop-color="#FF3647"/>
<stop offset="0.904" stop-color="#E31587"/>
</radialGradient>
<radialGradient id="paint8_radial_235_1673" cx="0" cy="0" r="1" gradientUnits="userSpaceOnUse" gradientTransform="translate(36.7508 8.1641) rotate(83.9766) scale(45.2778 29.713)">
<stop stop-color="#FFF44F"/>
<stop offset="0.06" stop-color="#FFE847"/>
<stop offset="0.168" stop-color="#FFC830"/>
<stop offset="0.304" stop-color="#FF980E"/>
<stop offset="0.356" stop-color="#FF8B16"/>
<stop offset="0.455" stop-color="#FF672A"/>
<stop offset="0.57" stop-color="#FF3647"/>
<stop offset="0.737" stop-color="#E31587"/>
</radialGradient>
<radialGradient id="paint9_radial_235_1673" cx="0" cy="0" r="1" gradientUnits="userSpaceOnUse" gradientTransform="translate(30.2261 19.2772) scale(38.5651 38.5684)">
<stop offset="0.137" stop-color="#FFF44F"/>
<stop offset="0.48" stop-color="#FF980E"/>
<stop offset="0.592" stop-color="#FF5634"/>
<stop offset="0.655" stop-color="#FF3647"/>
<stop offset="0.904" stop-color="#E31587"/>
</radialGradient>
<radialGradient id="paint10_radial_235_1673" cx="0" cy="0" r="1" gradientUnits="userSpaceOnUse" gradientTransform="translate(40.4061 21.5346) scale(42.2093 42.2129)">
<stop offset="0.094" stop-color="#FFF44F"/>
<stop offset="0.231" stop-color="#FFE141"/>
<stop offset="0.509" stop-color="#FFAF1E"/>
<stop offset="0.626" stop-color="#FF980E"/>
</radialGradient>
<linearGradient id="paint11_linear_235_1673" x1="47.6958" y1="17.3078" x2="19.0541" y2="45.9465" gradientUnits="userSpaceOnUse">
<stop offset="0.167" stop-color="#FFF44F" stop-opacity="0.8"/>
<stop offset="0.266" stop-color="#FFF44F" stop-opacity="0.634"/>
<stop offset="0.489" stop-color="#FFF44F" stop-opacity="0.217"/>
<stop offset="0.6" stop-color="#FFF44F" stop-opacity="0"/>
</linearGradient>
<clipPath id="clip0_235_1673">
<rect width="48" height="48" fill="white" transform="translate(8 8)"/>
</clipPath>
</defs>
</svg>
